<svg width="16" height="16" viewBox="0 0 16 16" fill="none" xmlns="http://www.w3.org/2000/svg">
<path d="M8.3995 3.13287C8.1787 3.13287 7.99951 2.95743 7.99951 2.74126C7.99951 1.2273 9.25389 0 10.7995 0C11.0211 0 11.1995 0.175441 11.1995 0.391609C11.1995 1.90557 9.94588 3.13287 8.3995 3.13287Z" fill="white"/>
<path d="M8.3995 3.13287C8.1787 3.13287 7.99951 2.95743 7.99951 2.74126C7.99951 1.2273 9.25389 0 10.7995 0C11.0211 0 11.1995 0.175441 11.1995 0.391609C11.1995 1.90557 9.94588 3.13287 8.3995 3.13287Z" fill="white"/>
<path d="M14.2398 11.379C14.3942 11.4926 14.4446 11.6986 14.3574 11.8677C12.9494 14.6262 11.8262 16 10.7998 16C10.3223 16 9.85266 15.8488 9.39506 15.5543C8.72867 15.1244 7.86869 15.1063 7.1839 15.5074C6.6295 15.8324 6.10151 16 5.59992 16C4.09034 16 1.59998 11.4487 1.59998 8.95104C1.59998 6.28497 3.02796 4.25174 5.19992 4.25174C6.22151 4.25174 7.1039 4.39898 7.84469 4.69817C8.15908 4.82505 8.51428 4.81565 8.82067 4.67154C9.42226 4.3888 10.2151 4.25174 11.1998 4.25174C12.4014 4.25174 13.4486 4.83758 14.3198 5.97482C14.4518 6.14791 14.4166 6.39305 14.2398 6.52307C13.2678 7.23658 12.7998 8.03859 12.7998 8.95104C12.7998 9.86349 13.2678 10.6655 14.2398 11.379Z" fill="white"/>
<path d="M14.2398 11.379C14.3942 11.4926 14.4446 11.6986 14.3574 11.8677C12.9494 14.6262 11.8262 16 10.7998 16C10.3223 16 9.85266 15.8488 9.39506 15.5543C8.72867 15.1244 7.86869 15.1063 7.1839 15.5074C6.6295 15.8324 6.10151 16 5.59992 16C4.09034 16 1.59998 11.4487 1.59998 8.95104C1.59998 6.28497 3.02796 4.25174 5.19992 4.25174C6.22151 4.25174 7.1039 4.39898 7.84469 4.69817C8.15908 4.82505 8.51428 4.81565 8.82067 4.67154C9.42226 4.3888 10.2151 4.25174 11.1998 4.25174C12.4014 4.25174 13.4486 4.83758 14.3198 5.97482C14.4518 6.14791 14.4166 6.39305 14.2398 6.52307C13.2678 7.23658 12.7998 8.03859 12.7998 8.95104C12.7998 9.86349 13.2678 10.6655 14.2398 11.379Z" fill="white"/>
</svg>
