<svg width="16" height="16" viewBox="0 0 16 16" fill="none" xmlns="http://www.w3.org/2000/svg">
<path d="M12.833 15L12.5207 15.3904C12.6707 15.5105 12.8764 15.5339 13.0496 15.4507C13.2228 15.3674 13.333 15.1922 13.333 15H12.833ZM12.833 1.00001H13.333V0.500011L12.833 0.500011L12.833 1.00001ZM2.83301 1L2.83301 0.5L2.33301 0.499999V1H2.83301ZM2.83301 15H2.33301C2.33301 15.1922 2.44318 15.3674 2.61641 15.4507C2.78965 15.5339 2.99527 15.5105 3.14536 15.3904L2.83301 15ZM7.83301 11L8.14536 10.6096C7.96275 10.4635 7.70327 10.4635 7.52066 10.6096L7.83301 11ZM13.333 15V1.00001H12.333V15H13.333ZM2.33301 1V15H3.33301V1H2.33301ZM3.14536 15.3904L8.14536 11.3904L7.52066 10.6096L2.52066 14.6096L3.14536 15.3904ZM7.52066 11.3904L12.5207 15.3904L13.1454 14.6096L8.14536 10.6096L7.52066 11.3904ZM12.833 0.500011L2.83301 0.5L2.83301 1.5L12.833 1.50001L12.833 0.500011Z" fill="#1D1929"/>
</svg>
