<svg width="20" height="20" viewBox="0 0 20 20" fill="none" xmlns="http://www.w3.org/2000/svg">
<path d="M5.4343 8.62646L5.92927 8.69717L5.92927 8.69717L5.4343 8.62646ZM5.42089 8.72027L4.92592 8.64956L4.92592 8.64956L5.42089 8.72027ZM14.5657 8.62646L15.0606 8.55576L15.0606 8.55575L14.5657 8.62646ZM14.5791 8.72027L14.0841 8.79098L14.0841 8.79098L14.5791 8.72027ZM12.6667 16.6667V17.1667C12.9428 17.1667 13.1667 16.9428 13.1667 16.6667H12.6667ZM7.33333 16.6667H6.83333C6.83333 16.9428 7.05719 17.1667 7.33333 17.1667V16.6667ZM6.34065 12.2039L6.73605 11.8978L6.73605 11.8978L6.34065 12.2039ZM13.6593 12.2039L13.2639 11.8978L13.2639 11.8978L13.6593 12.2039ZM8 19.8333H12V18.8333H8V19.8333ZM4.93932 8.55575L4.92592 8.64956L5.91587 8.79098L5.92927 8.69717L4.93932 8.55575ZM9.99998 4.16667C7.45597 4.16667 5.2991 6.03731 4.93932 8.55575L5.92927 8.69717C6.21867 6.67138 7.95362 5.16667 9.99998 5.16667V4.16667ZM15.0606 8.55575C14.7009 6.03731 12.544 4.16667 9.99998 4.16667V5.16667C12.0463 5.16667 13.7813 6.67138 14.0707 8.69717L15.0606 8.55575ZM15.074 8.64956L15.0606 8.55576L14.0707 8.69717L14.0841 8.79098L15.074 8.64956ZM14.0547 12.5099C14.868 11.4592 15.2797 10.0889 15.074 8.64956L14.0841 8.79098C14.2497 9.95034 13.9193 11.0511 13.2639 11.8978L14.0547 12.5099ZM12.1667 14.5351V16.6667H13.1667V14.5351H12.1667ZM12.6667 16.1667H7.33333V17.1667H12.6667V16.1667ZM7.83333 16.6667V14.5351H6.83333V16.6667H7.83333ZM4.92592 8.64956C4.7203 10.0889 5.132 11.4592 5.94525 12.5099L6.73605 11.8978C6.08065 11.0511 5.75025 9.95034 5.91587 8.79098L4.92592 8.64956ZM7.83333 14.5351C7.83333 13.4949 7.27968 12.6002 6.73605 11.8978L5.94525 12.5099C6.46105 13.1763 6.83333 13.8444 6.83333 14.5351H7.83333ZM13.2639 11.8978C12.7203 12.6002 12.1667 13.4949 12.1667 14.5351H13.1667C13.1667 13.8444 13.5389 13.1763 14.0547 12.5099L13.2639 11.8978ZM9.5 0V2.66667H10.5V0H9.5ZM0 10.5H2.66667V9.5H0V10.5ZM17.3333 10.5H20V9.5H17.3333V10.5ZM4.35355 4.97978L2.35355 2.97978L1.64645 3.68689L3.64645 5.68689L4.35355 4.97978ZM16.3536 5.68689L18.3536 3.68689L17.6464 2.97978L15.6464 4.97978L16.3536 5.68689Z" fill="#77757F"/>
</svg>
