<svg width="20" height="20" viewBox="0 0 20 20" fill="none" xmlns="http://www.w3.org/2000/svg">
<path d="M5.43381 8.62654L4.93883 8.55583L4.93883 8.55583L5.43381 8.62654ZM5.42041 8.72035L5.91538 8.79106L5.42041 8.72035ZM14.5652 8.62655L14.0702 8.69726L14.0702 8.69726L14.5652 8.62655ZM14.5786 8.72036L15.0736 8.64964V8.64964L14.5786 8.72036ZM12.6662 16.6667V17.1667C12.9423 17.1667 13.1662 16.9429 13.1662 16.6667H12.6662ZM7.33285 16.6667H6.83285C6.83285 16.9429 7.0567 17.1667 7.33285 17.1667V16.6667ZM6.34016 12.204L6.73556 11.8979L6.34016 12.204ZM13.6588 12.2039L13.2634 11.8979L13.6588 12.2039ZM7.99951 19.8334H11.9995V18.8334H7.99951V19.8334ZM4.93883 8.55583L4.92543 8.64964L5.91538 8.79106L5.92878 8.69725L4.93883 8.55583ZM9.99949 4.16675C7.45548 4.16675 5.29861 6.03739 4.93883 8.55583L5.92878 8.69725C6.21818 6.67146 7.95313 5.16675 9.99949 5.16675V4.16675ZM15.0602 8.55584C14.7004 6.0374 12.5435 4.16675 9.99949 4.16675V5.16675C12.0458 5.16675 13.7808 6.67147 14.0702 8.69726L15.0602 8.55584ZM15.0736 8.64964L15.0602 8.55583L14.0702 8.69726L14.0836 8.79107L15.0736 8.64964ZM14.0542 12.51C14.8675 11.4593 15.2792 10.089 15.0736 8.64964L14.0836 8.79107C14.2492 9.95042 13.9188 11.0512 13.2634 11.8979L14.0542 12.51ZM12.1662 14.5351V16.6667H13.1662V14.5351H12.1662ZM12.6662 16.1667H7.33285V17.1667H12.6662V16.1667ZM7.83285 16.6667V14.5352H6.83285V16.6667H7.83285ZM4.92543 8.64964C4.71981 10.089 5.13151 11.4593 5.94476 12.51L6.73556 11.8979C6.08017 11.0512 5.74976 9.95042 5.91538 8.79106L4.92543 8.64964ZM7.83285 14.5352C7.83285 13.495 7.27919 12.6003 6.73556 11.8979L5.94476 12.51C6.46056 13.1764 6.83285 13.8445 6.83285 14.5352H7.83285ZM13.2634 11.8979C12.7198 12.6003 12.1662 13.495 12.1662 14.5351H13.1662C13.1662 13.8445 13.5385 13.1764 14.0542 12.51L13.2634 11.8979Z" fill="#77757F"/>
</svg>
