<svg width="15" height="16" viewBox="0 0 15 16" fill="none" xmlns="http://www.w3.org/2000/svg">
<path fill-rule="evenodd" clip-rule="evenodd" d="M2.19729 3.19839C2.82994 2.14467 3.96894 1.5 5.19799 1.5H9.80201C11.0311 1.5 12.1701 2.14467 12.8027 3.19839L15 6.85813V13C15 13.8284 14.3284 14.5 13.5 14.5H12.5C11.6716 14.5 11 13.8284 11 13V12.5H4V13C4 13.8284 3.32843 14.5 2.5 14.5H1.5C0.671573 14.5 0 13.8284 0 13V6.85813L2.19729 3.19839ZM12 7.5H3V6.5H12V7.5ZM2 10.5H5V9.5H2V10.5ZM13 9.5H10V10.5H13V9.5Z" fill="#1D1929"/>
</svg>
