<svg width="22" height="22" viewBox="0 0 22 22" fill="none" xmlns="http://www.w3.org/2000/svg">
<path d="M16.3337 19L16.5689 18.2878L16.2419 18.1798L15.9468 18.3575L16.3337 19ZM19.0003 16.3333L18.3686 15.9291L18.1753 16.2311L18.289 16.5711L19.0003 16.3333ZM20.3337 20.3211L20.0984 21.0333C20.368 21.1223 20.6646 21.0515 20.865 20.8505C21.0653 20.6494 21.135 20.3525 21.045 20.0833L20.3337 20.3211ZM15.9468 18.3575C14.6881 19.1153 12.665 19.5711 11.0003 19.5711V21.0711C12.8583 21.0711 15.1685 20.5769 16.7205 19.6425L15.9468 18.3575ZM11.0003 19.5711C6.2594 19.5711 2.41699 15.7306 2.41699 10.994H0.916992C0.916992 16.56 5.43192 21.0711 11.0003 21.0711V19.5711ZM2.41699 10.994C2.41699 6.25733 6.25942 2.41666 11.0003 2.41666V0.916656C5.4319 0.916656 0.916992 5.42799 0.916992 10.994H2.41699ZM11.0003 2.41666C15.7412 2.41666 19.5837 6.25733 19.5837 10.994H21.0837C21.0837 5.42799 16.5688 0.916656 11.0003 0.916656V2.41666ZM19.5837 10.994C19.5837 12.7592 19.1909 14.6438 18.3686 15.9291L19.6321 16.7375C20.6631 15.1261 21.0837 12.925 21.0837 10.994H19.5837ZM16.0984 19.7122L20.0984 21.0333L20.5689 19.609L16.5689 18.2878L16.0984 19.7122ZM21.045 20.0833L19.7116 16.0955L18.289 16.5711L19.6224 20.5589L21.045 20.0833Z" fill="#D2D1D4"/>
</svg>
