<svg width="15" height="16" viewBox="0 0 15 16" fill="none" xmlns="http://www.w3.org/2000/svg">
<path d="M14.25 8.99475V8.24475H12.75V8.99475H14.25ZM7.5 3.74866H8.25V2.24866H7.5V3.74866ZM8.5 2.99866L9.03017 3.52915L9.561 2.99864L9.03015 2.46815L8.5 2.99866ZM12.75 8.99475C12.75 11.8909 10.3992 14.2408 7.5 14.2408V15.7408C11.2268 15.7408 14.25 12.7203 14.25 8.99475H12.75ZM7.5 14.2408C4.60075 14.2408 2.25 11.8909 2.25 8.99475H0.75C0.75 12.7203 3.77325 15.7408 7.5 15.7408V14.2408ZM2.25 8.99475C2.25 6.09858 4.60075 3.74866 7.5 3.74866V2.24866C3.77325 2.24866 0.75 5.26924 0.75 8.99475H2.25ZM5.96985 1.53051L7.96985 3.52917L9.03015 2.46815L7.03015 0.469492L5.96985 1.53051ZM7.96983 2.46817L5.96983 4.46694L7.03017 5.52793L9.03017 3.52915L7.96983 2.46817Z" fill="#1D1929"/>
</svg>
