<svg width="18" height="25" viewBox="0 0 18 25" fill="none" xmlns="http://www.w3.org/2000/svg">
<path d="M15.8805 7.98655C15.636 5.44863 13.445 4.59778 10.6789 4.35544L10.6788 0.834921L8.53535 0.835289L8.53548 4.26302C7.97271 4.26295 7.39687 4.27408 6.82476 4.2855L6.82507 0.835069L4.68331 0.835006L4.68252 4.35452C4.21857 4.364 3.76295 4.37261 3.31869 4.37291L3.31841 4.36199L0.362806 4.36098L0.363369 6.64968C0.363369 6.64968 1.94583 6.61951 1.91952 6.64866C2.78752 6.64892 3.07059 7.15269 3.15219 7.58767L3.15238 11.5983C3.21228 11.5986 3.29041 11.6011 3.37889 11.6132L3.15309 11.6134L3.15198 17.232C3.11389 17.5051 2.95331 17.9407 2.34688 17.9417C2.3743 17.966 0.789146 17.9413 0.789146 17.9413L0.363513 20.5011L3.15278 20.5008C3.67174 20.5015 4.18236 20.5103 4.68307 20.5136L4.68413 24.0748L6.82474 24.0751L6.82524 20.552C7.41242 20.5643 7.98121 20.569 8.53651 20.5685L8.53559 24.0752L10.6785 24.075L10.6792 20.5207C14.2818 20.314 16.8039 19.4062 17.116 16.0239C17.3688 13.2997 16.0879 12.084 14.0427 11.5924C15.2849 10.9586 16.0616 9.84388 15.88 7.9867L15.8805 7.98655ZM12.8819 15.6001C12.8825 18.2611 8.32716 17.9589 6.87414 17.9598L6.87468 13.2422C8.32742 13.2426 12.8809 12.825 12.8825 15.6L12.8819 15.6001ZM11.8847 8.94438C11.884 11.3652 8.08431 11.0827 6.87403 11.083L6.87416 6.80433C8.08443 6.80409 11.885 6.41925 11.8847 8.94438Z" fill="#F7931A"/>
</svg>
