<svg width="28" height="28" viewBox="0 0 28 28" fill="none" xmlns="http://www.w3.org/2000/svg">
<path fill-rule="evenodd" clip-rule="evenodd" d="M28 14.0001C28 14.0001 28 14 28 14C28 6.26801 21.732 0 14 0C6.26801 0 0 6.26801 0 14C0 14.2367 0.00587195 14.4719 0.0174781 14.7057C0.00587211 14.472 0 14.2368 0 14.0002C0 6.26942 6.26913 0.000396729 13.9997 0.000396729C21.7306 0.000396729 27.9999 6.26909 28 14.0001ZM2.03656 21.2755H7.93541V13.8637L13.9991 19.9272L20.0629 13.8636V21.2755H25.9618C23.5044 25.3074 19.0655 27.9999 13.999 27.9999C9.60793 27.9999 5.68852 25.9774 3.12161 22.8133C2.72686 22.3266 2.36411 21.813 2.03656 21.2755ZM27.9818 14.7204C27.9165 16.0077 27.6772 17.249 27.2868 18.4221H23.0997V6.64304L13.9999 15.743L4.89998 6.64304V18.4222H0.712903C0.321274 17.2446 0.0816708 15.9983 0.0174781 14.7057C0.136549 17.1041 0.859156 19.3436 2.03656 21.2755H2.0364C2.36401 21.813 2.72681 22.3266 3.12161 22.8133C5.6884 25.9776 9.60802 28 14 28C21.4904 28 27.6068 22.1176 27.9818 14.7204Z" fill="#FF4702"/>
</svg>
