<svg width="14" height="18" viewBox="0 0 14 18" fill="none" xmlns="http://www.w3.org/2000/svg">
<path d="M6.49976 9.99987L5.06648 14.833H12.7329C12.7836 14.8312 12.8343 14.8395 12.8819 14.8573C12.9295 14.8751 12.9731 14.9021 13.0102 14.9368C13.0474 14.9714 13.0773 15.0131 13.0984 15.0594C13.1194 15.1056 13.1311 15.1556 13.1329 15.2063V15.333L12.4662 17.6329C12.4368 17.7417 12.3713 17.8372 12.2805 17.9039C12.1896 17.9705 12.0788 18.0042 11.9662 17.9996H0.233325L2.19992 11.2998L0 11.9665L0.499982 10.4332L2.6999 9.76654L5.46647 0.366892C5.49692 0.258738 5.56269 0.163885 5.6533 0.0974394C5.7439 0.0309937 5.85414 -0.00322291 5.96645 0.000239105H8.933C8.98379 -0.00154227 9.03442 0.00670403 9.08202 0.0245064C9.12961 0.0423087 9.17323 0.0693178 9.21038 0.103989C9.24753 0.138661 9.27748 0.180316 9.29852 0.22657C9.31955 0.272825 9.33127 0.322773 9.33299 0.373559V0.500221L6.99974 8.43326L9.19966 7.76662L8.73301 9.36656L6.49976 9.99987Z" fill="#0084FF"/>
</svg>
