<svg width="21" height="12" viewBox="0 0 21 12" fill="none" xmlns="http://www.w3.org/2000/svg">
<path d="M20.3492 1.90332C20.3283 1.55448 20.2259 1.21539 20.0503 0.913265C19.8946 0.601927 19.6176 0.359083 19.2938 0.234548C18.9636 0.0699867 18.5977 -0.0102358 18.229 0.00104468H4.41162L3.42156 2.96809H15.9406L13.9636 9.03295H1.44765L0.457585 12H14.3403C14.754 11.988 15.163 11.9092 15.5514 11.7665C15.9406 11.5454 16.3858 11.3213 16.7625 11.0099C17.1303 10.72 17.4627 10.3877 17.7526 10.0199C17.9923 9.65954 18.1967 9.27689 18.3628 8.87728L20.1966 3.11131C20.3635 2.73193 20.4165 2.31226 20.3492 1.90332Z" fill="#1877F2"/>
<path d="M8.35632 4.62445H0.990056L0 7.36743H7.44099L8.35632 4.62445Z" fill="#1877F2"/>
</svg>
