<svg width="16" height="16" viewBox="0 0 16 16" fill="none" xmlns="http://www.w3.org/2000/svg">
<path fill-rule="evenodd" clip-rule="evenodd" d="M8 0C5.90305 0 3.98478 0.242201 2.57381 0.64514C1.87196 0.845573 1.26523 1.09423 0.821721 1.39359C0.396953 1.6803 0 2.10011 0 2.66523V13.325C0 13.8901 0.396953 14.3099 0.821721 14.5966C1.26523 14.896 1.87196 15.1447 2.57381 15.3451C3.98478 15.748 5.90305 15.9902 8 15.9902C10.097 15.9902 12.0152 15.748 13.4262 15.3451C14.128 15.1447 14.7348 14.896 15.1783 14.5966C15.603 14.3099 16 13.8901 16 13.325V2.66523C16 2.10011 15.603 1.6803 15.1783 1.39359C14.7348 1.09423 14.128 0.845573 13.4262 0.64514C12.0152 0.242201 10.097 0 8 0ZM1.34637 3.05475L1.82832 3.28314C3.03034 3.85276 5.31534 4.26531 7.99993 4.26531C10.6845 4.26531 12.9695 3.85276 14.1715 3.28314L14.6535 3.05475L15.1103 4.01866L14.6283 4.24706C13.2172 4.91575 10.7475 5.33197 7.99993 5.33197C5.25235 5.33197 2.78263 4.91575 1.37154 4.24706L0.889583 4.01866L1.34637 3.05475ZM1.82832 8.58471L1.34637 8.35632L0.889583 9.32023L1.37154 9.54862C2.78263 10.2173 5.25235 10.6335 7.99993 10.6335C10.7475 10.6335 13.2172 10.2173 14.6283 9.54862L15.1103 9.32023L14.6535 8.35632L14.1715 8.58471C12.9695 9.15433 10.6845 9.56687 7.99993 9.56687C5.31534 9.56687 3.03034 9.15433 1.82832 8.58471Z" fill="white"/>
</svg>
