<svg width="16" height="16" viewBox="0 0 16 16" fill="none" xmlns="http://www.w3.org/2000/svg">
<path d="M4.26636 10.1333C3.6188 9.64681 3.19995 8.87232 3.19995 8C3.19995 7.12768 3.6188 6.35319 4.26636 5.86667C3.6188 5.38014 3.19995 4.60565 3.19995 3.73333C3.19995 2.26057 4.39386 1.06667 5.86662 1.06667H10.1333C11.606 1.06667 12.8 2.26057 12.8 3.73333C12.8 4.60565 12.3811 5.38014 11.7335 5.86667C12.3811 6.35319 12.8 7.12768 12.8 8C12.8 9.47276 11.606 10.6667 10.1333 10.6667C9.53296 10.6667 8.97897 10.4683 8.53328 10.1335V12.2667C8.53328 13.7394 7.33938 14.9333 5.86662 14.9333C4.39386 14.9333 3.19995 13.7394 3.19995 12.2667C3.19995 11.3943 3.6188 10.6199 4.26636 10.1333Z" fill="white"/>
</svg>
