<svg width="16" height="16" viewBox="0 0 16 16" fill="none" xmlns="http://www.w3.org/2000/svg">
<path d="M2.17391 0.329236C2.25646 0.129943 2.45094 0 2.66665 0H13.3333C13.6279 0 13.8666 0.238781 13.8666 0.533333V5.86667C13.8666 6.16122 13.6279 6.4 13.3333 6.4H9.28755L13.7104 10.8229C13.863 10.9754 13.9086 11.2048 13.826 11.4041C13.7435 11.6034 13.549 11.7333 13.3333 11.7333H8.5333V15.4667C8.5333 15.6824 8.40336 15.8769 8.20407 15.9594C8.00477 16.042 7.77538 15.9963 7.62284 15.8438L2.28951 10.5105C2.18949 10.4104 2.1333 10.2748 2.1333 10.1333V5.86667C2.1333 5.57211 2.37208 5.33333 2.66663 5.33333H6.7124L2.28953 0.910457C2.13699 0.757925 2.09136 0.528529 2.17391 0.329236Z" fill="white"/>
</svg>
