<svg width="16" height="16" viewBox="0 0 16 16" fill="none" xmlns="http://www.w3.org/2000/svg">
<path fill-rule="evenodd" clip-rule="evenodd" d="M0 8C0 3.58172 3.58172 0 8 0C12.4183 0 16 3.58172 16 8C16 12.4183 12.4183 16 8 16C3.58172 16 0 12.4183 0 8ZM3.52504 6.2599C4.22203 4.46865 5.96352 3.2 8.00006 3.2C9.34292 3.2 10.5562 3.75074 11.428 4.64002L12.1897 3.89331C11.1255 2.80781 9.64109 2.13333 8.00006 2.13333C5.37237 2.13333 3.14948 3.8605 2.40206 6.24019L2.30521 6.54856L9.4515 13.6949L9.75988 13.598C11.9605 12.9068 13.6026 10.9546 13.8378 8.58603L13.896 8H9.60006V9.06667H12.6812C12.3267 10.6292 11.209 11.9035 9.74016 12.475L3.52504 6.2599ZM6.55625 13.7105L2.28958 9.44383L3.04383 8.68958L7.3105 12.9563L6.55625 13.7105Z" fill="white"/>
</svg>
