<svg width="20" height="20" viewBox="0 0 20 20" fill="none" xmlns="http://www.w3.org/2000/svg">
<path d="M7.33332 0.666748H1.99999C1.26361 0.666748 0.666656 1.2637 0.666656 2.00008V7.33341C0.666656 8.06979 1.26361 8.66675 1.99999 8.66675H7.33332C8.0697 8.66675 8.66666 8.06979 8.66666 7.33341V2.00008C8.66666 1.2637 8.0697 0.666748 7.33332 0.666748Z" stroke="white"/>
<path d="M18 0.666748H12.6667C11.9303 0.666748 11.3333 1.2637 11.3333 2.00008V7.33341C11.3333 8.06979 11.9303 8.66675 12.6667 8.66675H18C18.7364 8.66675 19.3333 8.06979 19.3333 7.33341V2.00008C19.3333 1.2637 18.7364 0.666748 18 0.666748Z" stroke="white"/>
<path d="M18 11.3334H12.6667C11.9303 11.3334 11.3333 11.9304 11.3333 12.6667V18.0001C11.3333 18.7365 11.9303 19.3334 12.6667 19.3334H18C18.7364 19.3334 19.3333 18.7365 19.3333 18.0001V12.6667C19.3333 11.9304 18.7364 11.3334 18 11.3334Z" stroke="white"/>
<path d="M7.33332 11.3334H1.99999C1.26361 11.3334 0.666656 11.9304 0.666656 12.6667V18.0001C0.666656 18.7365 1.26361 19.3334 1.99999 19.3334H7.33332C8.0697 19.3334 8.66666 18.7365 8.66666 18.0001V12.6667C8.66666 11.9304 8.0697 11.3334 7.33332 11.3334Z" stroke="white"/>
</svg>
