<svg width="22" height="20" viewBox="0 0 22 20" fill="none" xmlns="http://www.w3.org/2000/svg">
<path d="M11.0003 18L10.47 18.5303C10.6106 18.671 10.8014 18.75 11.0003 18.75C11.1992 18.75 11.39 18.671 11.5307 18.5303L11.0003 18ZM3.0477 10.0474L2.51737 10.5777H2.51737L3.0477 10.0474ZM9.71437 3.38071L9.18404 3.91104V3.91104L9.71437 3.38071ZM11.0003 4.66667L10.47 5.197C10.7629 5.48989 11.2378 5.48989 11.5307 5.197L11.0003 4.66667ZM12.2863 3.38071L11.7559 2.85038V2.85038L12.2863 3.38071ZM11.5307 17.4697L3.57803 9.51705L2.51737 10.5777L10.47 18.5303L11.5307 17.4697ZM18.4226 9.51705L10.47 17.4697L11.5307 18.5303L19.4833 10.5777L18.4226 9.51705ZM9.18404 3.91104L10.47 5.197L11.5307 4.13634L10.2447 2.85038L9.18404 3.91104ZM11.5307 5.197L12.8166 3.91104L11.7559 2.85038L10.47 4.13634L11.5307 5.197ZM15.6196 1.25C14.1705 1.25 12.7807 1.82567 11.7559 2.85038L12.8166 3.91104C13.56 3.16764 14.5683 2.75 15.6196 2.75V1.25ZM19.5837 6.71405C19.5837 7.76538 19.166 8.77365 18.4226 9.51705L19.4833 10.5777C20.508 9.553 21.0837 8.1632 21.0837 6.71405H19.5837ZM21.0837 6.71405C21.0837 3.69634 18.6373 1.25 15.6196 1.25V2.75C17.8089 2.75 19.5837 4.52476 19.5837 6.71405H21.0837ZM6.38104 2.75C7.43237 2.75 8.44064 3.16764 9.18404 3.91104L10.2447 2.85038C9.21999 1.82567 7.83019 1.25 6.38104 1.25V2.75ZM2.41699 6.71405C2.41699 4.52476 4.19176 2.75 6.38104 2.75V1.25C3.36333 1.25 0.916992 3.69634 0.916992 6.71405H2.41699ZM3.57803 9.51705C2.83463 8.77364 2.41699 7.76538 2.41699 6.71405H0.916992C0.916992 8.1632 1.49266 9.553 2.51737 10.5777L3.57803 9.51705Z" fill="#77757F"/>
</svg>
