<svg width="20" height="20" viewBox="0 0 20 20" fill="none" xmlns="http://www.w3.org/2000/svg">
<path d="M2 1.33325C0.895431 1.33325 0 2.22868 0 3.33325V5.99992C0 7.10449 0.895431 7.99992 2 7.99992H4.66667C5.77124 7.99992 6.66667 7.10449 6.66667 5.99992V3.33325C6.66667 2.22868 5.77124 1.33325 4.66667 1.33325H2Z" fill="white"/>
<path d="M9.33333 5.33325H20V3.99992H9.33333V5.33325Z" fill="white"/>
<path d="M2 11.9999C0.895431 11.9999 0 12.8953 0 13.9999V16.6666C0 17.7712 0.895431 18.6666 2 18.6666H4.66667C5.77124 18.6666 6.66667 17.7712 6.66667 16.6666V13.9999C6.66667 12.8953 5.77124 11.9999 4.66667 11.9999H2Z" fill="white"/>
<path d="M9.33333 15.9999H20V14.6666H9.33333V15.9999Z" fill="white"/>
</svg>
