<svg width="22" height="20" viewBox="0 0 22 20" fill="none" xmlns="http://www.w3.org/2000/svg">
<path d="M20.3337 4.66667L20.864 5.197C21.1569 4.90411 21.1569 4.42923 20.864 4.13634L20.3337 4.66667ZM1.66699 15.3333L1.13666 14.803C0.843769 15.0959 0.843769 15.5708 1.13666 15.8637L1.66699 15.3333ZM15.8033 1.197L19.8033 5.197L20.864 4.13634L16.864 0.136342L15.8033 1.197ZM19.8033 4.13634L15.8033 8.13634L16.864 9.197L20.864 5.197L19.8033 4.13634ZM6.19732 18.803L2.19732 14.803L1.13666 15.8637L5.13666 19.8637L6.19732 18.803ZM2.19732 15.8637L6.19732 11.8637L5.13666 10.803L1.13666 14.803L2.19732 15.8637ZM1.66699 16.0833H16.3337V14.5833H1.66699V16.0833ZM21.0837 11.3333V9.33334H19.5837V11.3333H21.0837ZM16.3337 16.0833C18.957 16.0833 21.0837 13.9567 21.0837 11.3333H19.5837C19.5837 13.1283 18.1286 14.5833 16.3337 14.5833V16.0833ZM20.3337 3.91667H5.66699V5.41667H20.3337V3.91667ZM0.916992 8.66667V10.6667H2.41699V8.66667H0.916992ZM5.66699 3.91667C3.04364 3.91667 0.916992 6.04332 0.916992 8.66667H2.41699C2.41699 6.87175 3.87207 5.41667 5.66699 5.41667V3.91667Z" fill="#A5A3A9"/>
</svg>
