<svg width="20" height="20" viewBox="0 0 20 20" fill="none" xmlns="http://www.w3.org/2000/svg">
<path fill-rule="evenodd" clip-rule="evenodd" d="M2 10.0001C2 9.2637 2.59695 8.66675 3.33333 8.66675C4.06971 8.66675 4.66667 9.2637 4.66667 10.0001C4.66667 10.7365 4.06971 11.3334 3.33333 11.3334C2.59695 11.3334 2 10.7365 2 10.0001ZM8.66667 10.0001C8.66667 9.2637 9.26362 8.66675 10 8.66675C10.7364 8.66675 11.3333 9.2637 11.3333 10.0001C11.3333 10.7365 10.7364 11.3334 10 11.3334C9.26362 11.3334 8.66667 10.7365 8.66667 10.0001ZM15.3333 10.0001C15.3333 9.2637 15.9303 8.66675 16.6667 8.66675C17.403 8.66675 18 9.2637 18 10.0001C18 10.7365 17.403 11.3334 16.6667 11.3334C15.9303 11.3334 15.3333 10.7365 15.3333 10.0001Z" fill="#003CFF" stroke="#003CFF"/>
</svg>
