<svg width="15" height="16" viewBox="0 0 15 16" fill="none" xmlns="http://www.w3.org/2000/svg">
<path d="M7 10.5C7 9.94771 6.55228 9.5 6 9.5C5.44772 9.5 5 9.94771 5 10.5C5 11.0523 5.44772 11.5 6 11.5C6.55228 11.5 7 11.0523 7 10.5Z" fill="#1D1929"/>
<path fill-rule="evenodd" clip-rule="evenodd" d="M1 2C1 1.17157 1.67157 0.5 2.5 0.5H10.7071L14 3.79289V14C14 14.8284 13.3284 15.5 12.5 15.5H2.5C1.67157 15.5 1 14.8284 1 14V2ZM7.34189 4.52569C7.54606 4.45763 7.77087 4.52786 7.9 4.70003L8.2 5.10003C8.86099 5.98135 9.89835 6.50003 11 6.50003V7.50003C9.88299 7.50003 8.8174 7.08529 8 6.3542V10.5C8 11.6046 7.10457 12.5 6 12.5C4.89543 12.5 4 11.6046 4 10.5C4 9.39543 4.89543 8.5 6 8.5C6.36429 8.5 6.70583 8.59739 7 8.76756V5.00003C7 4.78482 7.13772 4.59375 7.34189 4.52569Z" fill="#1D1929"/>
</svg>
