<svg width="15" height="16" viewBox="0 0 15 16" fill="none" xmlns="http://www.w3.org/2000/svg">
<path d="M1.5 0.5C0.671573 0.5 0 1.17157 0 2V6C0 6.82843 0.671573 7.5 1.5 7.5H5.5C6.32843 7.5 7 6.82843 7 6V2C7 1.17157 6.32843 0.5 5.5 0.5H1.5Z" fill="#003CFF"/>
<path d="M9.5 0.5C8.67157 0.5 8 1.17157 8 2V6C8 6.82843 8.67157 7.5 9.5 7.5H13.5C14.3284 7.5 15 6.82843 15 6V2C15 1.17157 14.3284 0.5 13.5 0.5H9.5Z" fill="#003CFF"/>
<path d="M1.5 8.5C0.671573 8.5 0 9.17157 0 10V14C0 14.8284 0.671573 15.5 1.5 15.5H5.5C6.32843 15.5 7 14.8284 7 14V10C7 9.17157 6.32843 8.5 5.5 8.5H1.5Z" fill="#003CFF"/>
<path d="M9.5 8.5C8.67157 8.5 8 9.17157 8 10V14C8 14.8284 8.67157 15.5 9.5 15.5H13.5C14.3284 15.5 15 14.8284 15 14V10C15 9.17157 14.3284 8.5 13.5 8.5H9.5Z" fill="#003CFF"/>
</svg>
