<svg width="15" height="16" viewBox="0 0 15 16" fill="none" xmlns="http://www.w3.org/2000/svg">
<path d="M5.5 0.5C3.56717 0.5 2 2.06567 2 3.99804C2 5.93041 3.56717 7.49609 5.5 7.49609C7.43283 7.49609 9 5.93041 9 3.99804C9 2.06567 7.43283 0.5 5.5 0.5Z" fill="#1D1929"/>
<path d="M3.5 9.49414C1.56711 9.49414 0 11.0605 0 12.9936V15.4909H11V12.9936C11 11.0605 9.43289 9.49414 7.5 9.49414H3.5Z" fill="#1D1929"/>
<path d="M12.5 10.5H12V15.5H15V13C15 11.6193 13.8807 10.5 12.5 10.5Z" fill="#1D1929"/>
<path d="M11.5 4.5C10.1193 4.5 9 5.61929 9 7C9 8.38071 10.1193 9.5 11.5 9.5C12.8807 9.5 14 8.38071 14 7C14 5.61929 12.8807 4.5 11.5 4.5Z" fill="#1D1929"/>
</svg>
