<svg width="22" height="22" viewBox="0 0 22 22" fill="none" xmlns="http://www.w3.org/2000/svg">
<path d="M20.3337 1.66666L21.023 1.9621C21.1438 1.68021 21.0808 1.35318 20.864 1.13633C20.6471 0.919472 20.3201 0.856491 20.0382 0.977298L20.3337 1.66666ZM1.66699 9.66666L1.37155 8.9773C1.11268 9.08824 0.937784 9.33487 0.918714 9.61587C0.899643 9.89687 1.03961 10.1649 1.28112 10.3098L1.66699 9.66666ZM12.3337 20.3333L11.6905 20.7192C11.8354 20.9607 12.1034 21.1007 12.3844 21.0816C12.6654 21.0625 12.9121 20.8876 13.023 20.6288L12.3337 20.3333ZM20.0382 0.977298L1.37155 8.9773L1.96243 10.356L20.6291 2.35602L20.0382 0.977298ZM1.28112 10.3098L7.94779 14.3098L8.71953 13.0235L2.05286 9.02354L1.28112 10.3098ZM7.69054 14.0525L11.6905 20.7192L12.9768 19.9475L8.97678 13.2808L7.69054 14.0525ZM13.023 20.6288L21.023 1.9621L19.6443 1.37122L11.6443 20.0379L13.023 20.6288ZM19.8033 1.13633L7.80333 13.1363L8.86399 14.197L20.864 2.19699L19.8033 1.13633Z" fill="#D2D1D4"/>
</svg>
