<svg width="16" height="16" viewBox="0 0 16 16" fill="none" xmlns="http://www.w3.org/2000/svg">
<path d="M5.16699 8L9.16699 8M11.667 4.5L9.16699 7.99542L11.667 11.5M15.167 2.9987C15.167 4.10198 14.271 4.99739 13.167 4.99739C12.063 4.99739 11.167 4.10198 11.167 2.9987C11.167 1.89542 12.063 1 13.167 1C14.271 1 15.167 1.89542 15.167 2.9987ZM15.167 12.9922C15.167 14.0954 14.271 14.9909 13.167 14.9909C12.063 14.9909 11.167 14.0954 11.167 12.9922C11.167 11.8889 12.063 10.9935 13.167 10.9935C14.271 10.9935 15.167 11.8889 15.167 12.9922ZM5.16699 7.99543C5.16699 9.09871 4.27099 9.99413 3.16699 9.99413C2.06299 9.99413 1.16699 9.09871 1.16699 7.99543C1.16699 6.89215 2.06299 5.99673 3.16699 5.99673C4.27099 5.99673 5.16699 6.89215 5.16699 7.99543Z" stroke="#1D1929" stroke-linecap="square"/>
</svg>
