<svg width="15" height="16" viewBox="0 0 15 16" fill="none" xmlns="http://www.w3.org/2000/svg">
<path fill-rule="evenodd" clip-rule="evenodd" d="M7.25193 0.565878C7.40565 0.478041 7.59435 0.478041 7.74807 0.565878L14.7481 4.56588C14.9039 4.6549 15 4.82057 15 5V5.71989C15 10.2523 11.9954 14.2356 7.63736 15.4808C7.54758 15.5064 7.45242 15.5064 7.36264 15.4808C3.0046 14.2356 0 10.2523 0 5.71989V5C0 4.82057 0.096143 4.6549 0.251931 4.56588L7.25193 0.565878ZM7.0718 11.2107L11.3905 5.81235L10.6096 5.18765L6.92825 9.78933L4.32012 7.61589L3.67993 8.38411L7.0718 11.2107Z" fill="#1BD2A4"/>
</svg>
