<svg width="32" height="32" viewBox="0 0 32 32" fill="none" xmlns="http://www.w3.org/2000/svg">
<path d="M10.6667 11.7333C10.6667 8.78782 13.0545 6.4 16 6.4C18.9455 6.4 21.3333 8.78782 21.3333 11.7333C21.3333 14.6789 18.9455 17.0667 16 17.0667C13.0545 17.0667 10.6667 14.6789 10.6667 11.7333Z" fill="white"/>
<path fill-rule="evenodd" clip-rule="evenodd" d="M16 0C7.16344 0 0 7.16344 0 16C0 24.8366 7.16344 32 16 32C24.8366 32 32 24.8366 32 16C32 7.16344 24.8366 0 16 0ZM2.13333 16C2.13333 8.34165 8.34165 2.13333 16 2.13333C23.6583 2.13333 29.8667 8.34165 29.8667 16C29.8667 19.9457 28.2187 23.5066 25.5734 26.0317C25.2513 22.205 22.0432 19.2 18.1333 19.2H13.8667C9.95678 19.2 6.7487 22.205 6.42659 26.0317C3.78135 23.5066 2.13333 19.9457 2.13333 16Z" fill="white"/>
</svg>
