<svg width="16" height="16" viewBox="0 0 16 16" fill="none" xmlns="http://www.w3.org/2000/svg">
<path d="M2.89806 1.06667H0.533333C0.342365 1.06667 0.165971 1.16877 0.0708575 1.33437C-0.0242562 1.49996 -0.023572 1.70378 0.0726513 1.86873L7.53932 14.6687C7.6349 14.8326 7.81031 14.9333 8 14.9333C8.18969 14.9333 8.3651 14.8326 8.46068 14.6687L15.9273 1.86873C16.0236 1.70378 16.0243 1.49996 15.9291 1.33437C15.834 1.16877 15.6576 1.06667 15.4667 1.06667H13.102L8.00004 9.56996L2.89806 1.06667Z" fill="white"/>
<path d="M11.8581 1.06667H8.73707L8.00002 2.54076L7.26297 1.06667H4.142L8.00004 7.49674L11.8581 1.06667Z" fill="white"/>
</svg>
